<svg width="1920" height="1080" viewBox="0 0 1920 1080" fill="none" xmlns="http://www.w3.org/2000/svg">
  <defs>
    <linearGradient id="bg-gradient" x1="0%" y1="0%" x2="100%" y2="100%">
      <stop offset="0%" style="stop-color:#667eea;stop-opacity:1" />
      <stop offset="50%" style="stop-color:#764ba2;stop-opacity:1" />
      <stop offset="100%" style="stop-color:#f093fb;stop-opacity:1" />
    </linearGradient>
    
    <linearGradient id="circle-gradient1" x1="0%" y1="0%" x2="100%" y2="100%">
      <stop offset="0%" style="stop-color:rgba(255,255,255,0.1);stop-opacity:1" />
      <stop offset="100%" style="stop-color:rgba(255,255,255,0.05);stop-opacity:1" />
    </linearGradient>
    
    <linearGradient id="circle-gradient2" x1="0%" y1="0%" x2="100%" y2="100%">
      <stop offset="0%" style="stop-color:rgba(255,255,255,0.08);stop-opacity:1" />
      <stop offset="100%" style="stop-color:rgba(255,255,255,0.03);stop-opacity:1" />
    </linearGradient>
    
    <linearGradient id="circle-gradient3" x1="0%" y1="0%" x2="100%" y2="100%">
      <stop offset="0%" style="stop-color:rgba(255,255,255,0.06);stop-opacity:1" />
      <stop offset="100%" style="stop-color:rgba(255,255,255,0.02);stop-opacity:1" />
    </linearGradient>
  </defs>
  
  <!-- 背景渐变 -->
  <rect width="1920" height="1080" fill="url(#bg-gradient)"/>
  
  <!-- 装饰性圆圈 -->
  <circle cx="200" cy="200" r="150" fill="url(#circle-gradient1)" opacity="0.6"/>
  <circle cx="1800" cy="300" r="200" fill="url(#circle-gradient2)" opacity="0.4"/>
  <circle cx="300" cy="800" r="180" fill="url(#circle-gradient3)" opacity="0.5"/>
  <circle cx="1600" cy="700" r="120" fill="url(#circle-gradient1)" opacity="0.3"/>
  <circle cx="100" cy="600" r="100" fill="url(#circle-gradient2)" opacity="0.4"/>
  <circle cx="1700" cy="100" r="80" fill="url(#circle-gradient3)" opacity="0.6"/>
  
  <!-- 几何图形装饰 -->
  <polygon points="0,400 200,300 400,400 200,500" fill="rgba(255,255,255,0.05)" opacity="0.8"/>
  <polygon points="1520,600 1720,500 1920,600 1720,700" fill="rgba(255,255,255,0.04)" opacity="0.7"/>
  
  <!-- 波浪效果 -->
  <path d="M0,800 Q480,750 960,800 T1920,800 L1920,1080 L0,1080 Z" fill="rgba(255,255,255,0.03)" opacity="0.9"/>
  <path d="M0,850 Q480,800 960,850 T1920,850 L1920,1080 L0,1080 Z" fill="rgba(255,255,255,0.02)" opacity="0.8"/>
  
  <!-- 小圆点装饰 -->
  <circle cx="400" cy="150" r="3" fill="rgba(255,255,255,0.3)"/>
  <circle cx="1500" cy="250" r="2" fill="rgba(255,255,255,0.4)"/>
  <circle cx="800" cy="100" r="4" fill="rgba(255,255,255,0.2)"/>
  <circle cx="1200" cy="400" r="3" fill="rgba(255,255,255,0.3)"/>
  <circle cx="600" cy="700" r="2" fill="rgba(255,255,255,0.4)"/>
  <circle cx="1400" cy="600" r="3" fill="rgba(255,255,255,0.2)"/>
  <circle cx="200" cy="900" r="2" fill="rgba(255,255,255,0.3)"/>
  <circle cx="1600" cy="900" r="4" fill="rgba(255,255,255,0.2)"/>
  
  <!-- 网格线条 -->
  <g stroke="rgba(255,255,255,0.02)" stroke-width="1" opacity="0.5">
    <line x1="0" y1="200" x2="1920" y2="200"/>
    <line x1="0" y1="400" x2="1920" y2="400"/>
    <line x1="0" y1="600" x2="1920" y2="600"/>
    <line x1="0" y1="800" x2="1920" y2="800"/>
    <line x1="400" y1="0" x2="400" y2="1080"/>
    <line x1="800" y1="0" x2="800" y2="1080"/>
    <line x1="1200" y1="0" x2="1200" y2="1080"/>
    <line x1="1600" y1="0" x2="1600" y2="1080"/>
  </g>
</svg> 